<svg width="40" height="40" viewBox="0 0 40 40" fill="none" xmlns="http://www.w3.org/2000/svg">
<rect width="40" height="40" rx="20" fill="#C13584"/>
<path fill-rule="evenodd" clip-rule="evenodd" d="M15.0527 8.072C16.3324 8.01309 16.7404 8 20 8C23.2596 8 23.6676 8.01418 24.9462 8.072C26.2247 8.12982 27.0975 8.33382 27.8611 8.62945C28.6607 8.93164 29.3862 9.404 29.9862 10.0149C30.5971 10.6138 31.0684 11.3382 31.3695 12.1389C31.6662 12.9025 31.8691 13.7753 31.928 15.0516C31.9869 16.3335 32 16.7415 32 20C32 23.2596 31.9858 23.6676 31.928 24.9473C31.8702 26.2236 31.6662 27.0964 31.3695 27.86C31.0684 28.6608 30.5963 29.3864 29.9862 29.9862C29.3862 30.5971 28.6607 31.0684 27.8611 31.3695C27.0975 31.6662 26.2247 31.8691 24.9484 31.928C23.6676 31.9869 23.2596 32 20 32C16.7404 32 16.3324 31.9858 15.0527 31.928C13.7764 31.8702 12.9036 31.6662 12.14 31.3695C11.3392 31.0683 10.6136 30.5963 10.0138 29.9862C9.40332 29.3869 8.93089 28.6617 8.62945 27.8611C8.33382 27.0975 8.13091 26.2247 8.072 24.9484C8.01309 23.6665 8 23.2585 8 20C8 16.7404 8.01418 16.3324 8.072 15.0538C8.12982 13.7753 8.33382 12.9025 8.62945 12.1389C8.93133 11.3383 9.40413 10.6131 10.0149 10.0138C10.6139 9.40346 11.3387 8.93103 12.1389 8.62945C12.9025 8.33382 13.7753 8.13091 15.0516 8.072H15.0527ZM24.8491 10.232C23.5836 10.1742 23.204 10.1622 20 10.1622C16.796 10.1622 16.4164 10.1742 15.1509 10.232C13.9804 10.2855 13.3455 10.4807 12.9222 10.6455C12.3625 10.8636 11.9622 11.1222 11.5422 11.5422C11.144 11.9295 10.8377 12.401 10.6455 12.9222C10.4807 13.3455 10.2855 13.9804 10.232 15.1509C10.1742 16.4164 10.1622 16.796 10.1622 20C10.1622 23.204 10.1742 23.5836 10.232 24.8491C10.2855 26.0196 10.4807 26.6545 10.6455 27.0778C10.8375 27.5982 11.144 28.0705 11.5422 28.4578C11.9295 28.856 12.4018 29.1625 12.9222 29.3545C13.3455 29.5193 13.9804 29.7145 15.1509 29.768C16.4164 29.8258 16.7949 29.8378 20 29.8378C23.2051 29.8378 23.5836 29.8258 24.8491 29.768C26.0196 29.7145 26.6545 29.5193 27.0778 29.3545C27.6375 29.1364 28.0378 28.8778 28.4578 28.4578C28.856 28.0705 29.1625 27.5982 29.3545 27.0778C29.5193 26.6545 29.7145 26.0196 29.768 24.8491C29.8258 23.5836 29.8378 23.204 29.8378 20C29.8378 16.796 29.8258 16.4164 29.768 15.1509C29.7145 13.9804 29.5193 13.3455 29.3545 12.9222C29.1364 12.3625 28.8778 11.9622 28.4578 11.5422C28.0705 11.1441 27.5989 10.8377 27.0778 10.6455C26.6545 10.4807 26.0196 10.2855 24.8491 10.232ZM18.4673 23.6993C19.3233 24.0556 20.2764 24.1037 21.1639 23.8353C22.0514 23.567 22.8182 22.9988 23.3334 22.2279C23.8485 21.457 24.0801 20.5311 23.9884 19.6085C23.8968 18.6858 23.4876 17.8236 22.8309 17.1691C22.4123 16.7507 21.906 16.4303 21.3487 16.2311C20.7914 16.0318 20.1968 15.9586 19.6078 16.0167C19.0188 16.0748 18.45 16.2627 17.9423 16.5671C17.4347 16.8714 17.0008 17.2844 16.672 17.7766C16.3431 18.2687 16.1275 18.8276 16.0406 19.413C15.9536 19.9985 15.9976 20.596 16.1693 21.1624C16.341 21.7288 16.6362 22.2501 17.0335 22.6888C17.4309 23.1275 17.9205 23.4726 18.4673 23.6993ZM15.6385 15.6385C16.2113 15.0658 16.8913 14.6115 17.6396 14.3015C18.3879 13.9915 19.19 13.832 20 13.832C20.81 13.832 21.6121 13.9915 22.3604 14.3015C23.1087 14.6115 23.7887 15.0658 24.3615 15.6385C24.9342 16.2113 25.3885 16.8913 25.6985 17.6396C26.0085 18.3879 26.168 19.19 26.168 20C26.168 20.81 26.0085 21.6121 25.6985 22.3604C25.3885 23.1087 24.9342 23.7887 24.3615 24.3615C23.2047 25.5182 21.6359 26.168 20 26.168C18.3641 26.168 16.7953 25.5182 15.6385 24.3615C14.4818 23.2047 13.832 21.6359 13.832 20C13.832 18.3641 14.4818 16.7953 15.6385 15.6385ZM27.536 14.7505C27.6779 14.6167 27.7916 14.4557 27.8701 14.2771C27.9487 14.0985 27.9907 13.9059 27.9935 13.7108C27.9964 13.5157 27.9601 13.3221 27.8867 13.1412C27.8134 12.9604 27.7045 12.7962 27.5665 12.6582C27.4285 12.5203 27.2643 12.4114 27.0835 12.338C26.9027 12.2647 26.709 12.2283 26.5139 12.2312C26.3188 12.234 26.1263 12.276 25.9477 12.3546C25.7691 12.4332 25.6081 12.5468 25.4742 12.6887C25.2138 12.9648 25.0712 13.3314 25.0768 13.7108C25.0823 14.0903 25.2355 14.4526 25.5038 14.7209C25.7721 14.9892 26.1345 15.1424 26.5139 15.148C26.8933 15.1535 27.26 15.0109 27.536 14.7505Z" fill="white"/>
</svg>
