<svg width="40" height="40" viewBox="0 0 40 40" fill="none" xmlns="http://www.w3.org/2000/svg">
<rect width="40" height="40" rx="20" fill="#0077B5"/>
<path d="M13.4482 30.9411V15.4628H8.30353V30.9411H13.4482ZM10.8765 13.3482C12.6706 13.3482 13.7873 12.1596 13.7873 10.6744C13.7538 9.15556 12.6706 8 10.9106 8C9.15079 8 8 9.15559 8 10.6744C8 12.1597 9.11642 13.3482 10.8429 13.3482H10.8764H10.8765ZM16.2957 30.9411H21.4404V22.2972C21.4404 21.8346 21.4738 21.3725 21.6097 21.0418C21.9816 20.1175 22.8281 19.1602 24.2493 19.1602C26.1109 19.1602 26.8557 20.5796 26.8557 22.6604V30.9409H32V22.0658C32 17.3115 29.4619 15.0994 26.077 15.0994C23.3017 15.0994 22.0831 16.6507 21.4062 17.7073H21.4405V15.4624H16.2959C16.3634 16.9148 16.2959 30.9407 16.2959 30.9407L16.2957 30.9411Z" fill="white"/>
</svg>
