<svg width="40" height="40" viewBox="0 0 40 40" fill="none" xmlns="http://www.w3.org/2000/svg">
<rect width="40" height="40" rx="20" fill="#25D366"/>
<path d="M29.86 10.1384C28.681 8.94853 27.277 8.0052 25.7299 7.36336C24.1827 6.72153 22.5232 6.39405 20.8482 6.39998C13.8294 6.39998 8.10929 12.1185 8.10286 19.1389C8.10286 21.3874 8.69111 23.5749 9.80171 25.5116L8 32.1157L14.7568 30.3445C16.626 31.3618 18.7201 31.895 20.8482 31.8955H20.8546C27.875 31.8955 33.5936 26.177 33.6 19.1502C33.6016 17.4755 33.2718 15.8171 32.6297 14.2704C31.9875 12.7237 31.0456 11.3194 29.8584 10.1384H29.86ZM20.8482 29.7386C18.9501 29.7392 17.0868 29.2285 15.4543 28.2599L15.0686 28.0285L11.0602 29.0796L12.1306 25.1692L11.8799 24.7658C10.8188 23.0788 10.2576 21.1255 10.2614 19.1325C10.2614 13.3047 15.014 8.55046 20.8546 8.55046C22.2461 8.54796 23.6243 8.82091 24.9097 9.35358C26.1952 9.88624 27.3625 10.6681 28.3443 11.654C29.3296 12.6361 30.1107 13.8036 30.6426 15.0891C31.1744 16.3745 31.4465 17.7526 31.4431 19.1437C31.4367 24.9924 26.6841 29.7386 20.8482 29.7386ZM26.6584 21.8085C26.3417 21.6494 24.7779 20.8795 24.4838 20.7702C24.1913 20.6658 23.9775 20.6111 23.7686 20.9294C23.5548 21.246 22.944 21.9676 22.7608 22.175C22.5776 22.3887 22.3879 22.4128 22.0697 22.2553C21.7531 22.0946 20.7261 21.7603 19.511 20.6722C18.5627 19.8284 17.9279 18.7837 17.7382 18.4671C17.555 18.1488 17.7205 17.9785 17.8797 17.8194C18.0195 17.6779 18.1963 17.4465 18.3554 17.2633C18.5161 17.08 18.5692 16.945 18.6736 16.7329C18.7781 16.5175 18.7283 16.3343 18.6495 16.1752C18.5692 16.0161 17.9343 14.4458 17.6659 13.8125C17.4087 13.1873 17.1468 13.2741 16.9507 13.2661C16.7675 13.2548 16.5537 13.2548 16.3399 13.2548C16.1785 13.2588 16.0196 13.2962 15.8733 13.3645C15.727 13.4328 15.5964 13.5306 15.4897 13.6518C15.1972 13.97 14.3791 14.7399 14.3791 16.3102C14.3791 17.8804 15.5202 19.3896 15.681 19.6034C15.8385 19.8172 17.9214 23.03 21.1182 24.4122C21.8736 24.7417 22.4683 24.9362 22.9328 25.0841C23.6962 25.3284 24.3857 25.2914 24.9354 25.2126C25.5462 25.1194 26.8175 24.4412 27.0859 23.697C27.3495 22.9513 27.3495 22.3148 27.2691 22.1814C27.1903 22.0464 26.9766 21.9676 26.6584 21.8085Z" fill="white"/>
</svg>
